<svg xmlns="http://www.w3.org/2000/svg" viewBox="0 0 32 32">
  <defs>
    <linearGradient id="g" x1="0%" y1="0%" x2="100%" y2="100%">
      <stop offset="0%" stop-color="#4F6CF7"/>
      <stop offset="100%" stop-color="#8B5CF6"/>
    </linearGradient>
  </defs>
  <rect width="32" height="32" rx="6" fill="url(#g)"/>
  <rect x="7" y="5" width="18" height="13" rx="2" fill="#1a1a2e"/>
  <rect x="8.5" y="6.5" width="15" height="10" rx="1" fill="#16213e"/>
  <rect x="10" y="8" width="6" height="1" rx="0.3" fill="rgba(79,108,247,0.8)"/>
  <rect x="10" y="10" width="9" height="0.7" rx="0.2" fill="rgba(255,255,255,0.3)"/>
  <rect x="10" y="11.5" width="7" height="0.7" rx="0.2" fill="rgba(255,255,255,0.2)"/>
  <rect x="14" y="19" width="4" height="2" rx="0.5" fill="#333"/>
  <rect x="11" y="21" width="10" height="1" rx="0.5" fill="#3a3a52"/>
  <rect x="8" y="23" width="16" height="5" rx="1.5" fill="#2a2a3e"/>
  <rect x="9" y="24" width="4" height="3" rx="0.8" fill="#4F6CF7" opacity="0.7"/>
  <rect x="14" y="24" width="3.5" height="3" rx="0.8" fill="#A78BFA" opacity="0.7"/>
  <rect x="18.5" y="24" width="3.5" height="3" rx="0.8" fill="#22C55E" opacity="0.7"/>
</svg>